/* XPM */
static char * e_consulter_xpm[] = {
"32 34 177 2",
"  	c None",
". 	c #DADAEC",
"+ 	c #9D9DCD",
"@ 	c #6D6DB5",
"# 	c #5454A9",
"$ 	c #4545A1",
"% 	c #4A4AA3",
"& 	c #6262AD",
"* 	c #8B8BC4",
"= 	c #C5C5E1",
"- 	c #FAFAFA",
"; 	c #ECECF4",
"> 	c #262692",
", 	c #00007F",
"' 	c #151589",
") 	c #D9D9EA",
"! 	c #FAFAFC",
"~ 	c #111186",
"{ 	c #060681",
"] 	c #292992",
"^ 	c #3E3E9D",
"/ 	c #3E3E9A",
"( 	c #333396",
"_ 	c #090982",
": 	c #7A7AB9",
"< 	c #F2F2F6",
"[ 	c #E5E5F2",
"} 	c #21218E",
"| 	c #7A7AB5",
"1 	c #BEBED4",
"2 	c #E1E1E1",
"3 	c #DEDEDE",
"4 	c #D9D9D9",
"5 	c #BFBFCF",
"6 	c #26268E",
"7 	c #EAEAEE",
"8 	c #F6F6F6",
"9 	c #1E1E8D",
"0 	c #9191C1",
"a 	c #DDDDE2",
"b 	c #D6D6D6",
"c 	c #D2D2D2",
"d 	c #CECECE",
"e 	c #8282B2",
"f 	c #353598",
"g 	c #353596",
"h 	c #CBCBDA",
"i 	c #CACACA",
"j 	c #C6C6C6",
"k 	c #ADADBD",
"l 	c #151586",
"m 	c #EEEEEE",
"n 	c #3B3B9C",
"o 	c #D5D5DB",
"p 	c #A1A1BB",
"q 	c #030380",
"r 	c #B9B9CF",
"s 	c #EAEAEA",
"t 	c #F2F2F2",
"u 	c #8B8BAA",
"v 	c #4A4A8A",
"w 	c #1C1C75",
"x 	c #00006A",
"y 	c #23237D",
"z 	c #515195",
"A 	c #B4B4C4",
"B 	c #C2C2C2",
"C 	c #5F5F9F",
"D 	c #5656A2",
"E 	c #ABABCA",
"F 	c #32327F",
"G 	c #00006D",
"H 	c #000071",
"I 	c #040473",
"J 	c #7A7AAA",
"K 	c #B4B4BC",
"L 	c #5656A4",
"M 	c #ACACB3",
"N 	c #141470",
"O 	c #000076",
"P 	c #000079",
"Q 	c #8989B5",
"R 	c #2A2A8D",
"S 	c #2E2E95",
"T 	c #ABABC4",
"U 	c #BBBBC2",
"V 	c #7B7BAE",
"W 	c #7E7EAE",
"X 	c #32328F",
"Y 	c #464699",
"Z 	c #9999B6",
"` 	c #E2E2EF",
" .	c #5A5A93",
"..	c #5B5BA1",
"+.	c #C5C5CA",
"@.	c #BEBEBE",
"#.	c #313191",
"$.	c #A2A2C0",
"%.	c #4B4B9E",
"&.	c #9595B2",
"*.	c #B2B2D3",
"=.	c #52529C",
"-.	c #C3C3C5",
";.	c #0A0A70",
">.	c #22228A",
",.	c #BABABA",
"'.	c #B5B5B5",
").	c #B2B2B2",
"!.	c #6D6D9D",
"~.	c #6D6DAA",
"{.	c #414199",
"].	c #9E9EB2",
"^.	c #1D1D89",
"/.	c #414193",
"(.	c #3F3F90",
"_.	c #3E3E8E",
":.	c #2A2A89",
"<.	c #7474A6",
"[.	c #5D5D9A",
"}.	c #B3B3C9",
"|.	c #7777B6",
"1.	c #7D7DAB",
"2.	c #6B6BA4",
"3.	c #656593",
"4.	c #6A6A99",
"5.	c #71719B",
"6.	c #9D9DAD",
"7.	c #5252A1",
"8.	c #8C8CBC",
"9.	c #7B7B97",
"0.	c #9A9A9A",
"a.	c #A2A2A2",
"b.	c #AAAAAA",
"c.	c #ADADAD",
"d.	c #9696B7",
"e.	c #454596",
"f.	c #41418C",
"g.	c #9292AB",
"h.	c #AAAAAD",
"i.	c #A3A3B3",
"j.	c #8080AB",
"k.	c #D2D2D4",
"l.	c #151583",
"m.	c #84849C",
"n.	c #9F9FB6",
"o.	c #5D5DA1",
"p.	c #8989AD",
"q.	c #6363A5",
"r.	c #9595BC",
"s.	c #59599D",
"t.	c #353592",
"u.	c #63639D",
"v.	c #111182",
"w.	c #222286",
"x.	c #5B5B9A",
"y.	c #7C7CA4",
"z.	c #BABACA",
"A.	c #0D0D84",
"B.	c #6666A6",
"C.	c #4D4D8E",
"D.	c #565696",
"E.	c #A5A5AB",
"F.	c #8C8CAA",
"G.	c #E6E6E6",
"H.	c #9C9CBC",
"I.	c #3E3E95",
"J.	c #A6A6A6",
"K.	c #9C9CA3",
"L.	c #0D0D82",
"M.	c #4E4E9E",
"N.	c #A3A3A7",
"O.	c #7C7C9D",
"P.	c #3B3B92",
"Q.	c #35358E",
"R.	c #4F4F9B",
"S.	c #7474AB",
"T.	c #7171A5",
"                      . + @ # $ $ % & * = -                     ",
"                ; * > , , , , , , , , , , ' @ ) -               ",
"            ! * ~ , , , , { ] ^ / ( ' , , , , _ : < -           ",
"          [ ^ , , , } | 1 2 3 3 4 4 4 5 | 6 , , , / 7 8 -       ",
"        ) 9 , , ~ 0 a 3 4 b c d d d d d d c e _ , , f 7 8 -     ",
"      [ 9 , , g h 3 b d i i j j j j j j j j i k l , , & m 8 -   ",
"    ! n , , f o b d i j j j j i i i i i i j j j p { , q r s t - ",
"    * , , 9 o b i j j j u v w x x y z A c d i j B C , , D 2 m 8 ",
"  ; ~ , , E c i j B k F x G G H H H H I J b b d i K q , l b 2 m ",
"  * , , L c i B B M N x G H O O O P P P O Q 4 b c i R , , A 4 s ",
"  S , , T i B B U w G H O P R V W X , , , l 4 3 4 c Y , , Z c 2 ",
"` , , } d B B B  .G H O P ..+.j B @.#., , , $.3 3 4 %., , &.d 4 ",
"*., , =.j B B -.;.H P P >.U ,.'.'.).!., , , ~.b 3 4 {., , ].j b ",
"* , , ~.B B j &.H O P , ^./.(._._.(.:., , , C i b 4 ^., , K j c ",
": , , W B B i <.O P , , , , , , , , , , , , [.B c }., , R @.B c ",
"|., , 1.B B d 2.O , , ,  .3.3.4.!.5.5.!.4.4.6.,.i 7., , 2.@.B d ",
"8., , 2.B j c J P , , , 9.0.a.b.).,.,.).c.b.c.,.d.q , ~ K @.B d ",
"E , , e.B i c p P , , , f.0.a.c.'.@.@.,.g.h.'.i.l , , j.B @.j d ",
"a q , l B i c k.l., , , , f.m.).K n., { { ].2._ , , o.j @.B j d ",
"s g , , p.i c b e , , , , , , , , , , , , , , , , q.i B @.B i c ",
"s r., , >.-.c b c s., , , , , , , , , , , , , t.Z j B B B i c 4 ",
"m 3 #., , o.d c c j u.v., , , , , , P w.x.y.i.@.@.B B B j c 4 2 ",
"t 2 z.A., , B.c b d @.h.5.C._.(.D.y.E.).c.b.c.6.F.@.B j d 4 G.s ",
"t G.4 H._ , , I.z.c j ,.c.J.J.b.c.c.b.b.J.K.D.L.L.i.j d 4 2 m t ",
"8 m 3 c Z ~ , , { M.d.U '.).b.b.b.b.N.O._._ , , l &.i b 2 m 8 - ",
"- t G.4 i K e., , , , { R P././.Q.>.q , , , { z M j c 3 s t -   ",
"- 8 m 2 c i B n.R._ , , , , , , , , , , l D.i.,.B i b 2 m 8 -   ",
"  - t s 3 c i j B -.Z S.=.I.t.t.I.=.T.].@.@.@.@.j d b G.m 8     ",
"    - t s 3 c i j B j j i i i i j j j j j B B j i c 4 G.t -     ",
"    - 8 t s 3 b d i j j j j j j j j j j j j j i d 4 2 s t -     ",
"      - 8 t s 2 4 b d d i i j j j j j j i i d c 4 2 s t 8 -     ",
"        - - 8 m G.2 3 b b c c d d d d c c b 4 3 2 s t 8 -       ",
"            - 8 t m s G.2 3 3 4 4 4 3 3 3 2 G.s m t 8 -         ",
"                - 8 8 t m s s s G.G.s s s m t 8 8 -             "};
